<svg xmlns="http://www.w3.org/2000/svg" viewBox="0 0 800 520" role="img" aria-labelledby="title desc">
  <title id="title">Vertaa remonttitarjouksia ja tingaa vastatarjouksella</title>
  <desc id="desc">Flat-kuvitus: kolme vertailukelpoista tarjousta ja vastatarjous.</desc>
  <defs>
    <linearGradient id="bg2" x1="0" y1="0" x2="1" y2="1">
      <stop offset="0%" stop-color="#f0f9ff"/>
      <stop offset="50%" stop-color="#ffffff"/>
      <stop offset="100%" stop-color="#faf5ff"/>
    </linearGradient>
  </defs>
  <rect width="800" height="520" rx="24" fill="url(#bg2)"/>
  <!-- Bid A -->
  <g transform="translate(64,112)">
    <rect width="200" height="296" rx="20" fill="#ffffff" stroke="#cbd5e1" stroke-width="2"/>
    <rect x="24" y="28" width="72" height="12" rx="6" fill="#0284c7" opacity="0.25"/>
    <rect x="24" y="72" width="120" height="28" rx="8" fill="#0f172a" opacity="0.9"/>
    <rect x="24" y="120" width="96" height="10" rx="5" fill="#e2e8f0"/>
    <rect x="24" y="142" width="112" height="10" rx="5" fill="#e2e8f0"/>
    <rect x="24" y="164" width="80" height="10" rx="5" fill="#e2e8f0"/>
    <rect x="24" y="220" width="152" height="36" rx="12" fill="#f1f5f9" stroke="#cbd5e1" stroke-width="2"/>
  </g>
  <!-- Counter offer (highlight) -->
  <g transform="translate(300,88)">
    <rect width="200" height="320" rx="20" fill="#ffffff" stroke="#7c3aed" stroke-width="3"/>
    <rect x="24" y="28" width="104" height="12" rx="6" fill="#7c3aed" opacity="0.2"/>
    <rect x="24" y="72" width="128" height="32" rx="8" fill="#7c3aed" opacity="0.15"/>
    <rect x="24" y="120" width="120" height="28" rx="8" fill="#0f172a" opacity="0.9"/>
    <path d="M24 180h152" stroke="#e2e8f0" stroke-width="2"/>
    <path d="M100 196l-20 24h40z" fill="#ea580c"/>
    <rect x="24" y="244" width="152" height="36" rx="12" fill="#ea580c"/>
  </g>
  <!-- Bid B -->
  <g transform="translate(536,112)">
    <rect width="200" height="296" rx="20" fill="#ffffff" stroke="#cbd5e1" stroke-width="2"/>
    <rect x="24" y="28" width="72" height="12" rx="6" fill="#0284c7" opacity="0.25"/>
    <rect x="24" y="72" width="120" height="28" rx="8" fill="#0f172a" opacity="0.9"/>
    <rect x="24" y="120" width="112" height="10" rx="5" fill="#e2e8f0"/>
    <rect x="24" y="142" width="96" height="10" rx="5" fill="#e2e8f0"/>
    <rect x="24" y="164" width="104" height="10" rx="5" fill="#e2e8f0"/>
    <rect x="24" y="220" width="152" height="36" rx="12" fill="#f1f5f9" stroke="#cbd5e1" stroke-width="2"/>
  </g>
  <!-- Compare bar -->
  <rect x="120" y="448" width="560" height="12" rx="6" fill="#e2e8f0"/>
  <rect x="120" y="448" width="360" height="12" rx="6" fill="#0284c7" opacity="0.35"/>
  <circle cx="720" cy="88" r="24" fill="#ddd6fe" opacity="0.8"/>
  <circle cx="80" cy="440" r="16" fill="#bae6fd" opacity="0.7"/>
</svg>
